<svg width="98" height="134" viewBox="0 0 98 134" fill="none" xmlns="http://www.w3.org/2000/svg">
<path d="M95.5 58.5C102 81 91.5259 89 49 89C6.47408 89 0.5 83.0767 0.5 58.5C16.5 41.5 6.47408 0 49 0C91.5259 0 84 36.5 95.5 58.5Z" fill="#2B2424"/>
<path d="M79.5 63C97.5 87 75.8381 117 48.5 117C21.1619 117 5.00003 78 16.5 60C16.5 29.0721 20.5 9.00001 48.5 22.5C81.5 4.5 79.5 32.0721 79.5 63Z" fill="#DAB7A3"/>
<path d="M88.328 49.6654C88.0068 55.2969 85.0024 64.013 81.4195 63.8086C77.8366 63.6042 80.9147 58.3956 78.7575 53.4268C79.0787 47.7953 78.3727 39.9444 81.9556 40.1488C85.5385 40.3532 88.6493 44.0339 88.328 49.6654Z" fill="#DAB7A3"/>
<path d="M87.0908 49.9619C86.8133 54.8255 84.244 62.3544 81.1861 62.18C78.1282 62.0056 80.7584 57.5056 78.9201 53.2158C79.1975 48.3522 78.5995 41.5726 81.6574 41.747C84.7153 41.9215 87.3682 45.0984 87.0908 49.9619Z" fill="#C2A08D"/>
<path d="M80.118 49.4943C79.6463 45.8779 82.2297 41.0001 85.3546 46.8317" stroke="#B88C73"/>
<path d="M9.19473 47.1215C9.11905 52.1345 11.393 60.0564 14.8239 60.1082C18.2547 60.16 15.6725 55.3426 18.067 51.0782C18.1427 46.0651 19.3486 39.1514 15.9177 39.0996C12.4869 39.0478 9.27042 42.1084 9.19473 47.1215Z" fill="#DAB7A3"/>
<path d="M10.3547 47.4648C10.2893 51.7942 12.2288 58.6355 15.157 58.6797C18.0851 58.7239 15.882 54.5638 17.9263 50.8805C17.9917 46.5511 19.022 40.58 16.0938 40.5358C13.1657 40.4916 10.42 43.1353 10.3547 47.4648Z" fill="#C2A08D"/>
<path d="M17.0363 47.5037C17.7314 44.3285 15.5986 39.8365 12.2227 44.8028" stroke="#B88C73"/>
<circle cx="39" cy="52" r="3" fill="#272727"/>
<path d="M43 53C43 55.2091 41.2091 57 39 57C36.7909 57 35 55.2091 35 53C36 50 36.2909 54 38.5 54C40.7091 54 41.5 50 43 53Z" fill="#272727" fill-opacity="0.16"/>
<path d="M61 53.1157C61 55.3248 59.2091 57.1157 57 57.1157C54.7909 57.1157 53 55.3248 53 53.1157C54 50.1157 54.2909 54.1157 56.5 54.1157C58.7091 54.1157 59.5 50.1157 61 53.1157Z" fill="#272727" fill-opacity="0.16"/>
<circle cx="57" cy="52" r="3" fill="#272727"/>
<path d="M79.9999 64C101 93 66.9999 111 49.9999 134C35.4999 121.5 5.99992 104.5 13.5 69C15.5825 59.1424 37.5 110 46.5 91.5C61 104 75.4999 86.5 79.9999 64Z" fill="#433434"/>
<path d="M61 81.9672C61 84.3316 55.8448 90.5295 48.4483 89.816C40.6034 91.2431 35 83.9748 35 81.6104C35 79.246 40.6965 80.1833 48 80.1833C55.3035 80.1833 60.5517 80.1833 61 81.9672Z" fill="#812727"/>
<path d="M61 81.665C55.7119 83.1472 54.8305 84.6295 48 85C41.8305 84.2589 42.2712 83.1472 35 81.2945C35 79.4526 40.7288 78.3301 48 79.4417C55.0508 78.3301 61 79.8232 61 81.665Z" fill="#AB3434"/>
<path d="M48.629 68.8614C48.629 71.6228 45.7418 80.8613 36.6291 80.8613C27.5164 80.8613 15.629 85.3613 17.129 83.3613C17.129 80.5999 27.5164 70.8613 36.6291 70.8613C45.7418 70.8613 48.629 66.0999 48.629 68.8614Z" fill="#524141"/>
<path d="M48 68.8682C48 71.6516 50.6473 80.9636 59.0025 80.9636C67.3577 80.9636 78.257 85.4994 76.8817 83.4835C76.8817 80.7001 67.3577 70.8841 59.0025 70.8841C50.6473 70.8841 48 66.0848 48 68.8682Z" fill="#524141"/>
<path d="M50.9321 61.1515C55.7485 67.4242 57.5983 73 49.0276 73C40.457 73 38.5523 70.2121 44.2661 61.1515C44.2661 54.9927 44.2661 52.0909 49.0276 50C52.8916 52.7879 50.9321 54.9927 50.9321 61.1515Z" fill="#B88C73"/>
<path d="M95.5 58.5C102 81 91.5259 89 49 89C6.47408 89 0.5 83.0767 0.5 58.5C16.5 41.5 6.47408 0 49 0C91.5259 0 84 36.5 95.5 58.5Z" fill="#2B2424"/>
<path d="M79.5 63C97.5 87 75.8381 117 48.5 117C21.1619 117 5.00003 78 16.5 60C16.5 29.0721 20.5 9.00001 48.5 22.5C81.5 4.5 79.5 32.0721 79.5 63Z" fill="#DAB7A3"/>
<path d="M88.328 49.6654C88.0068 55.2969 85.0024 64.013 81.4195 63.8086C77.8366 63.6042 80.9147 58.3956 78.7575 53.4268C79.0787 47.7953 78.3727 39.9444 81.9556 40.1488C85.5385 40.3532 88.6493 44.0339 88.328 49.6654Z" fill="#DAB7A3"/>
<path d="M87.0908 49.9619C86.8133 54.8255 84.244 62.3544 81.1861 62.18C78.1282 62.0056 80.7584 57.5056 78.9201 53.2158C79.1975 48.3522 78.5995 41.5726 81.6574 41.747C84.7153 41.9215 87.3682 45.0984 87.0908 49.9619Z" fill="#C2A08D"/>
<path d="M80.118 49.4943C79.6463 45.8779 82.2297 41.0001 85.3546 46.8317" stroke="#B88C73"/>
<path d="M9.19473 47.1215C9.11905 52.1345 11.393 60.0564 14.8239 60.1082C18.2547 60.16 15.6725 55.3426 18.067 51.0782C18.1427 46.0651 19.3486 39.1514 15.9177 39.0996C12.4869 39.0478 9.27042 42.1084 9.19473 47.1215Z" fill="#DAB7A3"/>
<path d="M10.3547 47.4648C10.2893 51.7942 12.2288 58.6355 15.157 58.6797C18.0851 58.7239 15.882 54.5638 17.9263 50.8805C17.9917 46.5511 19.022 40.58 16.0938 40.5358C13.1657 40.4916 10.42 43.1353 10.3547 47.4648Z" fill="#C2A08D"/>
<path d="M17.0363 47.5037C17.7314 44.3285 15.5986 39.8365 12.2227 44.8028" stroke="#B88C73"/>
<circle cx="39" cy="52" r="3" fill="#272727"/>
<path d="M43 53C43 55.2091 41.2091 57 39 57C36.7909 57 35 55.2091 35 53C36 50 36.2909 54 38.5 54C40.7091 54 41.5 50 43 53Z" fill="#272727" fill-opacity="0.16"/>
<path d="M61 53.1157C61 55.3248 59.2091 57.1157 57 57.1157C54.7909 57.1157 53 55.3248 53 53.1157C54 50.1157 54.2909 54.1157 56.5 54.1157C58.7091 54.1157 59.5 50.1157 61 53.1157Z" fill="#272727" fill-opacity="0.16"/>
<circle cx="57" cy="52" r="3" fill="#272727"/>
<path d="M79.9999 64C101 93 66.9999 111 49.9999 134C35.4999 121.5 5.99992 104.5 13.5 69C15.5825 59.1424 37.5 110 46.5 91.5C61 104 75.4999 86.5 79.9999 64Z" fill="#433434"/>
<path d="M60 85.5C60 87.9853 54.0751 91 48 91C41.9249 91 35.5 87.4853 35.5 85C35.5 82.5147 41.9249 82 48 82C54.0751 82 60 83.0147 60 85.5Z" fill="white"/>
<path d="M36 85C37.2173 85.2928 38.4181 85.6434 39.6499 85.8496C40.657 86.0182 41.653 86.2654 42.6592 86.4321C43.2895 86.5366 43.9185 86.6604 44.5518 86.7399C45.0523 86.8027 45.5546 86.8309 46.0549 86.8986C47.1909 87.0522 48.344 86.9856 49.4859 86.9856C49.9993 86.9856 50.5127 86.9937 51.0243 86.9334C51.4021 86.8888 51.7767 86.9265 52.1541 86.8637C52.8271 86.7516 53.4868 86.5997 54.1657 86.5657C54.8361 86.5321 55.5086 86.3391 56.1709 86.2193C56.4986 86.16 56.8359 86.1565 57.1606 86.0799C57.4392 86.0142 57.7481 85.96 58.0312 85.9425C58.3471 85.923 58.6989 85.8871 59 85.7664" stroke="black" stroke-opacity="0.45" stroke-linecap="round" stroke-linejoin="round"/>
<path d="M61 85C61 87.3644 55.5 96 48 94C40.1551 95.4271 35.4999 86 34.4999 84C33.4999 83 40.6965 89 48 89C55.3034 89 60.5517 83.2162 61 85Z" fill="#812727"/>
<path d="M61 85C55.7119 86.4822 54.3305 83.6295 47.5 84C41.3305 83.2589 41.7712 86.3528 34.5 84.5C34.5 82.6582 40.7288 78.3301 48 79.4417C55.0508 78.3301 61 83.1581 61 85Z" fill="#AB3434"/>
<path d="M48.629 68.8614C48.629 71.6228 45.7418 80.8613 36.6291 80.8613C27.5164 80.8613 15.629 85.3613 17.129 83.3613C17.129 80.5999 27.5164 70.8613 36.6291 70.8613C45.7418 70.8613 48.629 66.0999 48.629 68.8614Z" fill="#524141"/>
<path d="M48 68.8682C48 71.6516 50.6473 80.9636 59.0025 80.9636C67.3577 80.9636 78.257 85.4994 76.8817 83.4835C76.8817 80.7001 67.3577 70.8841 59.0025 70.8841C50.6473 70.8841 48 66.0848 48 68.8682Z" fill="#524141"/>
<path d="M50.9321 61.1515C55.7485 67.4242 57.5983 73 49.0276 73C40.457 73 38.5523 70.2121 44.2661 61.1515C44.2661 54.9927 44.2661 52.0909 49.0276 50C52.8916 52.7879 50.9321 54.9927 50.9321 61.1515Z" fill="#B88C73"/>
<path d="M38.7426 39.5512C39.3496 40.7913 38.4679 42.469 34.0034 44.6541C29.5389 46.8392 28.0748 51.8764 27.4678 50.6363C26.8609 49.3962 28.4399 44.5938 32.9044 42.4087C37.3689 40.2235 38.1356 38.311 38.7426 39.5512Z" fill="#2A2424"/>
<path d="M56.2655 40.5649C55.675 41.836 56.4384 43.4435 60.4751 45.3188C64.5118 47.194 65.7184 52.0982 66.3089 50.8271C66.8994 49.556 65.5809 44.8925 61.5443 43.0172C57.5076 41.142 56.856 39.2938 56.2655 40.5649Z" fill="#2A2424"/>
<path d="M35.5589 58.0698C35.2466 59.5369 34.2774 60.8642 33.4672 60.6918C32.6569 60.5193 32.3371 58.7957 32.6246 57.4452C33.8109 56.6753 34.291 55.2439 35.1012 55.4164C35.9115 55.5888 35.3821 56.4986 35.5589 58.0698Z" fill="#8CAAAE"/>
<path d="M24.5589 36.0698C24.2466 37.5369 23.2774 38.8642 22.4672 38.6918C21.6569 38.5193 21.3371 36.7957 21.6246 35.4452C22.8109 34.6753 23.291 33.2439 24.1012 33.4164C24.9115 33.5888 24.3821 34.4986 24.5589 36.0698Z" fill="#8CAAAE"/>
<path d="M65.5465 62.4142C65.9361 63.8627 65.6773 65.4856 64.8773 65.7008C64.0773 65.916 63.0081 64.5268 62.6495 63.1935C63.3554 61.968 63.1314 60.475 63.9314 60.2598C64.7314 60.0446 64.674 61.0955 65.5465 62.4142Z" fill="#8CAAAE"/>
</svg>
