<svg width="98" height="134" viewBox="0 0 98 134" fill="none" xmlns="http://www.w3.org/2000/svg">
<path d="M95.5 58.5C102 81 91.5259 89 49 89C6.47408 89 0.5 83.0767 0.5 58.5C16.5 41.5 6.47408 0 49 0C91.5259 0 84 36.5 95.5 58.5Z" fill="#2B2424"/>
<path d="M79.5 63C97.5 87 75.8381 117 48.5 117C21.1619 117 5.00003 78 16.5 60C16.5 29.0721 20.5 9.00001 48.5 22.5C81.5 4.5 79.5 32.0721 79.5 63Z" fill="#DAB7A3"/>
<path d="M88.3282 49.6654C88.0069 55.2969 85.0025 64.013 81.4196 63.8086C77.8367 63.6042 80.9148 58.3956 78.7576 53.4268C79.0789 47.7953 78.3729 39.9444 81.9558 40.1488C85.5387 40.3532 88.6494 44.0339 88.3282 49.6654Z" fill="#DAB7A3"/>
<path d="M87.0909 49.9619C86.8135 54.8255 84.2441 62.3544 81.1862 62.18C78.1283 62.0056 80.7585 57.5056 78.9202 53.2158C79.1976 48.3522 78.5996 41.5726 81.6575 41.747C84.7154 41.9215 87.3684 45.0984 87.0909 49.9619Z" fill="#C2A08D"/>
<path d="M80.1182 49.4943C79.6465 45.8779 82.2299 41.0001 85.3549 46.8317" stroke="#B88C73"/>
<path d="M9.19461 47.1215C9.11893 52.1345 11.3929 60.0564 14.8237 60.1082C18.2546 60.16 15.6724 55.3426 18.0669 51.0782C18.1425 46.0651 19.3485 39.1514 15.9176 39.0996C12.4868 39.0478 9.2703 42.1084 9.19461 47.1215Z" fill="#DAB7A3"/>
<path d="M10.3545 47.4648C10.2892 51.7942 12.2287 58.6355 15.1569 58.6797C18.085 58.7239 15.8819 54.5638 17.9262 50.8805C17.9915 46.5511 19.0218 40.58 16.0937 40.5358C13.1655 40.4916 10.4199 43.1353 10.3545 47.4648Z" fill="#C2A08D"/>
<path d="M17.0361 47.5037C17.7313 44.3285 15.5985 39.8365 12.2226 44.8028" stroke="#B88C73"/>
<circle cx="39" cy="52" r="3" fill="#272727"/>
<path d="M43 53C43 55.2091 41.2091 57 39 57C36.7909 57 35 55.2091 35 53C36 50 36.2909 54 38.5 54C40.7091 54 41.5 50 43 53Z" fill="#272727" fill-opacity="0.16"/>
<path d="M61 53.1157C61 55.3248 59.2091 57.1157 57 57.1157C54.7909 57.1157 53 55.3248 53 53.1157C54 50.1157 54.2909 54.1157 56.5 54.1157C58.7091 54.1157 59.5 50.1157 61 53.1157Z" fill="#272727" fill-opacity="0.16"/>
<circle cx="57" cy="52" r="3" fill="#272727"/>
<path d="M79.9999 64C101 93 66.9999 111 49.9999 134C35.4999 121.5 5.99992 104.5 13.5 69C15.5825 59.1424 37.5 110 46.5 91.5C61 104 75.4999 86.5 79.9999 64Z" fill="#433434"/>
<path d="M61 81.9672C61 84.3316 55.8448 90.5295 48.4483 89.816C40.6034 91.2431 35 83.9748 35 81.6104C35 79.246 40.6965 80.1833 48 80.1833C55.3035 80.1833 60.5517 80.1833 61 81.9672Z" fill="#812727"/>
<path d="M61 81.665C55.7119 83.1472 54.8305 84.6295 48 85C41.8305 84.2589 42.2712 83.1472 35 81.2945C35 79.4526 40.7288 78.3301 48 79.4417C55.0508 78.3301 61 79.8232 61 81.665Z" fill="#AB3434"/>
<path d="M48.629 68.8614C48.629 71.6228 45.7418 80.8613 36.6291 80.8613C27.5164 80.8613 15.629 85.3613 17.129 83.3613C17.129 80.5999 27.5164 70.8613 36.6291 70.8613C45.7418 70.8613 48.629 66.0999 48.629 68.8614Z" fill="#524141"/>
<path d="M48 68.8682C48 71.6516 50.6473 80.9636 59.0025 80.9636C67.3577 80.9636 78.257 85.4994 76.8817 83.4835C76.8817 80.7001 67.3577 70.8841 59.0025 70.8841C50.6473 70.8841 48 66.0848 48 68.8682Z" fill="#524141"/>
<path d="M50.9321 61.1515C55.7485 67.4242 57.5983 73 49.0276 73C40.457 73 38.5523 70.2121 44.2661 61.1515C44.2661 54.9927 44.2661 52.0909 49.0276 50C52.8916 52.7879 50.9321 54.9927 50.9321 61.1515Z" fill="#B88C73"/>
<path d="M95.5 58.5C102 81 91.5259 89 49 89C6.47408 89 0.5 83.0767 0.5 58.5C16.5 41.5 6.47408 0 49 0C91.5259 0 84 36.5 95.5 58.5Z" fill="#2B2424"/>
<path d="M79.5 63C97.5 87 75.8381 117 48.5 117C21.1619 117 5.00003 78 16.5 60C16.5 29.0721 20.5 9.00001 48.5 22.5C81.5 4.5 79.5 32.0721 79.5 63Z" fill="#DAB7A3"/>
<path d="M88.3282 49.6654C88.0069 55.2969 85.0025 64.013 81.4196 63.8086C77.8367 63.6042 80.9148 58.3956 78.7576 53.4268C79.0789 47.7953 78.3729 39.9444 81.9558 40.1488C85.5387 40.3532 88.6494 44.0339 88.3282 49.6654Z" fill="#DAB7A3"/>
<path d="M87.0909 49.9619C86.8135 54.8255 84.2441 62.3544 81.1862 62.18C78.1283 62.0056 80.7585 57.5056 78.9202 53.2158C79.1976 48.3522 78.5996 41.5726 81.6575 41.747C84.7154 41.9215 87.3684 45.0984 87.0909 49.9619Z" fill="#C2A08D"/>
<path d="M80.1182 49.4943C79.6465 45.8779 82.2299 41.0001 85.3549 46.8317" stroke="#B88C73"/>
<path d="M9.19461 47.1215C9.11893 52.1345 11.3929 60.0564 14.8237 60.1082C18.2546 60.16 15.6724 55.3426 18.0669 51.0782C18.1425 46.0651 19.3485 39.1514 15.9176 39.0996C12.4868 39.0478 9.2703 42.1084 9.19461 47.1215Z" fill="#DAB7A3"/>
<path d="M10.3545 47.4648C10.2892 51.7942 12.2287 58.6355 15.1569 58.6797C18.085 58.7239 15.8819 54.5638 17.9262 50.8805C17.9915 46.5511 19.0218 40.58 16.0937 40.5358C13.1655 40.4916 10.4199 43.1353 10.3545 47.4648Z" fill="#C2A08D"/>
<path d="M17.0361 47.5037C17.7313 44.3285 15.5985 39.8365 12.2226 44.8028" stroke="#B88C73"/>
<path d="M33.8082 54.6464C33.6362 53.0851 35.9532 51.6464 37.3082 50.6464C38.6632 49.6464 42.328 47.4387 42.5 49C42.672 50.5613 39.8373 51.638 38.5002 52.5C36.6454 53.6958 33.9802 56.2078 33.8082 54.6464Z" fill="#272727"/>
<path d="M34.5202 48.6675C36.0107 48.1718 37.9034 50.1354 39.1654 51.2505C40.4275 52.3655 43.3549 55.4856 41.8645 55.9813C40.374 56.477 38.7265 53.9313 37.6032 52.8048C36.0449 51.2421 33.0297 49.1633 34.5202 48.6675Z" fill="#272727"/>
<path d="M42.5 56C42.5 58.2091 41.2091 56 39 56C36.7909 56 33 58.7091 33 56.5C34 53.5 36.2909 53 38.5 53C40.7091 53 41 53 42.5 56Z" fill="#272727" fill-opacity="0.16"/>
<path d="M61.5 56C61.5 58.2091 60.2091 56 58 56C55.7909 56 52 58.7091 52 56.5C53 53.5 55.2909 53 57.5 53C59.7091 53 60 53 61.5 56Z" fill="#272727" fill-opacity="0.16"/>
<path d="M79.9999 64C101 93 66.9999 111 49.9999 134C35.4999 121.5 5.99992 104.5 13.5 69C15.5825 59.1424 37.5 110 46.5 91.5C61 104 75.4999 86.5 79.9999 64Z" fill="#433434"/>
<path d="M35.0582 91.4645C35.0434 89.1001 40.4892 80.4302 48.0016 82.3832C55.8374 80.907 60.5516 90.3047 61.5641 92.2984C62.5703 93.2921 55.3363 87.3373 48.033 87.3831C40.7296 87.4289 35.5177 93.2455 35.0582 91.4645Z" fill="#812727"/>
<path d="M48.629 68.8614C48.629 71.6228 45.7418 80.8613 36.6291 80.8613C27.5164 80.8613 15.629 85.3613 17.129 83.3613C17.129 80.5999 27.5164 70.8613 36.6291 70.8613C45.7418 70.8613 48.629 66.0999 48.629 68.8614Z" fill="#524141"/>
<path d="M48 68.8682C48 71.6516 50.6473 80.9636 59.0025 80.9636C67.3577 80.9636 78.257 85.4994 76.8817 83.4835C76.8817 80.7001 67.3577 70.8841 59.0025 70.8841C50.6473 70.8841 48 66.0848 48 68.8682Z" fill="#524141"/>
<path d="M50.9321 61.1515C55.7485 67.4242 57.5983 73 49.0276 73C40.457 73 38.5523 70.2121 44.2661 61.1515C44.2661 54.9927 44.2661 52.0909 49.0276 50C52.8916 52.7879 50.9321 54.9927 50.9321 61.1515Z" fill="#B88C73"/>
<path d="M52.5785 54.6464C52.4065 53.0851 54.7235 51.6464 56.0785 50.6464C57.4335 49.6464 61.0983 47.4387 61.2703 49C61.4422 50.5613 58.6075 51.638 57.2705 52.5C55.4157 53.6958 52.7505 56.2078 52.5785 54.6464Z" fill="#272727"/>
<path d="M53.2907 48.6676C54.7812 48.1718 56.6739 50.1354 57.936 51.2505C59.198 52.3655 62.1255 55.4856 60.635 55.9813C59.1445 56.477 57.497 53.9313 56.3737 52.8048C54.8154 51.2422 51.8002 49.1633 53.2907 48.6676Z" fill="#272727"/>
<path d="M40.7426 39.5512C41.3496 40.7913 40.4679 42.469 36.0034 44.6541C31.5389 46.8392 30.0748 51.8764 29.4678 50.6363C28.8609 49.3962 30.4399 44.5938 34.9044 42.4087C39.3689 40.2235 40.1356 38.311 40.7426 39.5512Z" fill="#2A2424"/>
<path d="M57.5633 42.596C57.1557 43.937 58.1358 45.4224 62.3945 46.7165C66.6532 48.0106 68.5318 52.6987 68.9394 51.3577C69.3469 50.0167 67.3911 45.5825 63.1324 44.2884C58.8737 42.9942 57.9708 41.255 57.5633 42.596Z" fill="#2A2424"/>
<path d="M29.4576 62.3452C29.1453 63.8123 28.1762 65.1396 27.3659 64.9672C26.5556 64.7947 26.2359 63.0711 26.5233 61.7206C27.7096 60.9507 28.1897 59.5193 29 59.6918C29.8103 59.8642 29.2808 60.774 29.4576 62.3452Z" fill="#8CAAAE"/>
<path d="M38.5589 61.0698C38.2466 62.5369 37.2774 63.8642 36.4672 63.6918C35.6569 63.5193 35.3371 61.7957 35.6246 60.4452C36.8109 59.6753 37.291 58.2439 38.1012 58.4164C38.9115 58.5888 38.3821 59.4986 38.5589 61.0698Z" fill="#8CAAAE"/>
<path d="M67.5465 63.4142C67.9361 64.8627 67.6773 66.4856 66.8773 66.7008C66.0773 66.916 65.0081 65.5268 64.6495 64.1935C65.3554 62.968 65.1314 61.475 65.9314 61.2598C66.7314 61.0446 66.674 62.0955 67.5465 63.4142Z" fill="#8CAAAE"/>
<path d="M57.5465 60.4142C57.9361 61.8627 57.6773 63.4856 56.8773 63.7008C56.0773 63.916 55.0081 62.5268 54.6495 61.1935C55.3554 59.968 55.1314 58.475 55.9314 58.2598C56.7314 58.0446 56.674 59.0955 57.5465 60.4142Z" fill="#8CAAAE"/>
<path d="M76.5465 49.4142C76.9361 50.8627 76.6773 52.4856 75.8773 52.7008C75.0773 52.916 74.0081 51.5268 73.6495 50.1935C74.3554 48.968 74.1314 47.475 74.9314 47.2598C75.7314 47.0446 75.674 48.0955 76.5465 49.4142Z" fill="#8CAAAE"/>
</svg>
