<svg width="98" height="134" viewBox="0 0 98 134" fill="none" xmlns="http://www.w3.org/2000/svg">
<path d="M95.5 58.5C102 81 91.5259 89 49 89C6.47408 89 0.5 83.0767 0.5 58.5C16.5 41.5 6.47408 0 49 0C91.5259 0 84 36.5 95.5 58.5Z" fill="#2B2424"/>
<path d="M79.5 63C97.5 87 75.8381 117 48.5 117C21.1619 117 5.00003 78 16.5 60C16.5 29.0721 20.5 9.00001 48.5 22.5C81.5 4.5 79.5 32.0721 79.5 63Z" fill="#DAB7A3"/>
<path d="M88.328 49.6654C88.0068 55.2969 85.0024 64.013 81.4195 63.8086C77.8366 63.6042 80.9147 58.3956 78.7575 53.4268C79.0787 47.7953 78.3727 39.9444 81.9556 40.1488C85.5385 40.3532 88.6493 44.0339 88.328 49.6654Z" fill="#DAB7A3"/>
<path d="M87.0908 49.9619C86.8133 54.8255 84.244 62.3544 81.1861 62.18C78.1282 62.0056 80.7584 57.5056 78.9201 53.2158C79.1975 48.3522 78.5995 41.5726 81.6574 41.747C84.7153 41.9215 87.3682 45.0984 87.0908 49.9619Z" fill="#C2A08D"/>
<path d="M80.118 49.4943C79.6463 45.8779 82.2297 41.0001 85.3547 46.8317" stroke="#B88C73"/>
<path d="M9.19473 47.1215C9.11905 52.1345 11.393 60.0564 14.8239 60.1082C18.2547 60.16 15.6725 55.3426 18.067 51.0782C18.1427 46.0651 19.3486 39.1514 15.9177 39.0996C12.4869 39.0478 9.27042 42.1084 9.19473 47.1215Z" fill="#DAB7A3"/>
<path d="M10.3546 47.4648C10.2892 51.7942 12.2288 58.6355 15.1569 58.6797C18.0851 58.7239 15.882 54.5638 17.9262 50.8805C17.9916 46.5511 19.0219 40.58 16.0937 40.5358C13.1656 40.4916 10.42 43.1353 10.3546 47.4648Z" fill="#C2A08D"/>
<path d="M17.0363 47.5037C17.7314 44.3285 15.5986 39.8365 12.2227 44.8028" stroke="#B88C73"/>
<circle cx="39" cy="52" r="3" fill="#272727"/>
<path d="M43 53C43 55.2091 41.2091 57 39 57C36.7909 57 35 55.2091 35 53C36 50 36.2909 54 38.5 54C40.7091 54 41.5 50 43 53Z" fill="#272727" fill-opacity="0.16"/>
<path d="M61 53.1157C61 55.3248 59.2091 57.1157 57 57.1157C54.7909 57.1157 53 55.3248 53 53.1157C54 50.1157 54.2909 54.1157 56.5 54.1157C58.7091 54.1157 59.5 50.1157 61 53.1157Z" fill="#272727" fill-opacity="0.16"/>
<circle cx="57" cy="52" r="3" fill="#272727"/>
<path d="M80 64C101 93 67 111 50 134C35.5 121.5 5.99999 104.5 13.5 69C15.5826 59.1424 37.5 110 46.5 91.5C61 104 75.5 86.5 80 64Z" fill="#433434"/>
<path d="M61 81.9672C61 84.3316 55.8448 90.5295 48.4483 89.816C40.6034 91.2431 35 83.9748 35 81.6104C35 79.246 40.6965 80.1833 48 80.1833C55.3035 80.1833 60.5517 80.1833 61 81.9672Z" fill="#812727"/>
<path d="M61 81.665C55.7119 83.1472 54.8305 84.6295 48 85C41.8305 84.2589 42.2712 83.1472 35 81.2945C35 79.4526 40.7288 78.3301 48 79.4417C55.0508 78.3301 61 79.8232 61 81.665Z" fill="#AB3434"/>
<path d="M48.629 68.8614C48.629 71.6228 45.7418 80.8613 36.6291 80.8613C27.5164 80.8613 15.629 85.3613 17.129 83.3613C17.129 80.5999 27.5164 70.8613 36.6291 70.8613C45.7418 70.8613 48.629 66.0999 48.629 68.8614Z" fill="#524141"/>
<path d="M48 68.8682C48 71.6516 50.6473 80.9636 59.0025 80.9636C67.3577 80.9636 78.257 85.4994 76.8817 83.4835C76.8817 80.7001 67.3577 70.8841 59.0025 70.8841C50.6473 70.8841 48 66.0848 48 68.8682Z" fill="#524141"/>
<path d="M50.9321 61.1515C55.7485 67.4242 57.5983 73 49.0276 73C40.457 73 38.5523 70.2121 44.2661 61.1515C44.2661 54.9927 44.2661 52.0909 49.0276 50C52.8916 52.7879 50.9321 54.9927 50.9321 61.1515Z" fill="#B88C73"/>
<path d="M95.5 58.5C102 81 91.5259 89 49 89C6.47408 89 0.5 83.0767 0.5 58.5C16.5 41.5 6.47408 0 49 0C91.5259 0 84 36.5 95.5 58.5Z" fill="#2B2424"/>
<path d="M79.5 63C97.5 87 75.8381 117 48.5 117C21.1619 117 5.00003 78 16.5 60C16.5 29.0721 20.5 9.00001 48.5 22.5C81.5 4.5 79.5 32.0721 79.5 63Z" fill="#DAB7A3"/>
<path d="M88.328 49.6654C88.0068 55.2969 85.0024 64.013 81.4195 63.8086C77.8366 63.6042 80.9147 58.3956 78.7575 53.4268C79.0787 47.7953 78.3727 39.9444 81.9556 40.1488C85.5385 40.3532 88.6493 44.0339 88.328 49.6654Z" fill="#DAB7A3"/>
<path d="M87.0908 49.9619C86.8133 54.8255 84.244 62.3544 81.1861 62.18C78.1282 62.0056 80.7584 57.5056 78.9201 53.2158C79.1975 48.3522 78.5995 41.5726 81.6574 41.747C84.7153 41.9215 87.3682 45.0984 87.0908 49.9619Z" fill="#C2A08D"/>
<path d="M80.118 49.4943C79.6463 45.8779 82.2297 41.0001 85.3547 46.8317" stroke="#B88C73"/>
<path d="M9.19473 47.1215C9.11905 52.1345 11.393 60.0564 14.8239 60.1082C18.2547 60.16 15.6725 55.3426 18.067 51.0782C18.1427 46.0651 19.3486 39.1514 15.9177 39.0996C12.4869 39.0478 9.27042 42.1084 9.19473 47.1215Z" fill="#DAB7A3"/>
<path d="M10.3546 47.4648C10.2892 51.7942 12.2288 58.6355 15.1569 58.6797C18.0851 58.7239 15.882 54.5638 17.9262 50.8805C17.9916 46.5511 19.0219 40.58 16.0937 40.5358C13.1656 40.4916 10.42 43.1353 10.3546 47.4648Z" fill="#C2A08D"/>
<path d="M17.0363 47.5037C17.7314 44.3285 15.5986 39.8365 12.2227 44.8028" stroke="#B88C73"/>
<circle cx="39" cy="52" r="3" fill="#272727"/>
<path d="M43 53C43 55.2091 41.2091 57 39 57C36.7909 57 35 55.2091 35 53C36 50 36.2909 54 38.5 54C40.7091 54 41.5 50 43 53Z" fill="#272727" fill-opacity="0.16"/>
<path d="M61 53.1157C61 55.3248 59.2091 57.1157 57 57.1157C54.7909 57.1157 53 55.3248 53 53.1157C54 50.1157 54.2909 54.1157 56.5 54.1157C58.7091 54.1157 59.5 50.1157 61 53.1157Z" fill="#272727" fill-opacity="0.16"/>
<circle cx="57" cy="52" r="3" fill="#272727"/>
<path d="M80 64C101 93 67 111 50 134C35.5 121.5 5.99999 104.5 13.5 69C15.5826 59.1424 37.5 110 46.5 91.5C61 104 75.5 86.5 80 64Z" fill="#433434"/>
<path d="M61 85.5C61 87.8644 55.5 90.5 48 88.5C40.1552 89.9271 35.5 87 34.5 85C33.5 84 40.6965 80.1833 48 80.1833C55.3035 80.1833 60.5517 83.7162 61 85.5Z" fill="#812727"/>
<path d="M61 85C55.7119 86.4822 54.3305 83.6295 47.5 84C41.3305 83.2589 41.7712 86.3528 34.5 84.5C34.5 82.6582 40.7288 78.3301 48 79.4417C55.0508 78.3301 61 83.1581 61 85Z" fill="#AB3434"/>
<path d="M48.629 68.8614C48.629 71.6228 45.7418 80.8613 36.6291 80.8613C27.5164 80.8613 15.629 85.3613 17.129 83.3613C17.129 80.5999 27.5164 70.8613 36.6291 70.8613C45.7418 70.8613 48.629 66.0999 48.629 68.8614Z" fill="#524141"/>
<path d="M48 68.8682C48 71.6516 50.6473 80.9636 59.0025 80.9636C67.3577 80.9636 78.257 85.4994 76.8817 83.4835C76.8817 80.7001 67.3577 70.8841 59.0025 70.8841C50.6473 70.8841 48 66.0848 48 68.8682Z" fill="#524141"/>
<path d="M50.9321 61.1515C55.7485 67.4242 57.5983 73 49.0276 73C40.457 73 38.5523 70.2121 44.2661 61.1515C44.2661 54.9927 44.2661 52.0909 49.0276 50C52.8916 52.7879 50.9321 54.9927 50.9321 61.1515Z" fill="#B88C73"/>
<path d="M44 45C44 46.3807 42.4706 47.5 37.5 47.5C32.5294 47.5 29 51.3807 29 50C29 48.6193 32.5294 45 37.5 45C42.4706 45 44 43.6193 44 45Z" fill="#2A2424"/>
<path d="M52 44.6229C52 46.0245 53.1216 47.1607 56.7667 47.1607C60.4117 47.1607 63 51.1 63 49.6985C63 48.2969 60.4117 44.6229 56.7667 44.6229C53.1216 44.6229 52 43.2213 52 44.6229Z" fill="#2A2424"/>
</svg>
