<svg width="98" height="134" viewBox="0 0 98 134" fill="none" xmlns="http://www.w3.org/2000/svg">
<path d="M95.5 58.5C102 81 91.5259 89 49 89C6.47408 89 0.5 83.0767 0.5 58.5C16.5 41.5 6.47408 0 49 0C91.5259 0 84 36.5 95.5 58.5Z" fill="#2B2424"/>
<path d="M79.5 63C97.5 87 75.8381 117 48.5 117C21.1619 117 5.00003 78 16.5 60C16.5 29.0721 20.5 9.00001 48.5 22.5C81.5 4.5 79.5 32.0721 79.5 63Z" fill="#DAB7A3"/>
<path d="M88.3282 49.6654C88.0069 55.2969 85.0025 64.013 81.4196 63.8086C77.8367 63.6042 80.9148 58.3956 78.7576 53.4268C79.0789 47.7953 78.3729 39.9444 81.9558 40.1488C85.5387 40.3532 88.6494 44.0339 88.3282 49.6654Z" fill="#DAB7A3"/>
<path d="M87.0909 49.9619C86.8135 54.8255 84.2441 62.3544 81.1862 62.18C78.1283 62.0056 80.7585 57.5056 78.9202 53.2158C79.1976 48.3522 78.5996 41.5726 81.6575 41.747C84.7154 41.9215 87.3684 45.0984 87.0909 49.9619Z" fill="#C2A08D"/>
<path d="M80.1182 49.4943C79.6465 45.8779 82.2299 41.0001 85.3549 46.8317" stroke="#B88C73"/>
<path d="M9.19461 47.1215C9.11893 52.1345 11.3929 60.0564 14.8237 60.1082C18.2546 60.16 15.6724 55.3426 18.0669 51.0782C18.1425 46.0651 19.3485 39.1514 15.9176 39.0996C12.4868 39.0478 9.2703 42.1084 9.19461 47.1215Z" fill="#DAB7A3"/>
<path d="M10.3545 47.4648C10.2892 51.7942 12.2287 58.6355 15.1569 58.6797C18.085 58.7239 15.8819 54.5638 17.9262 50.8805C17.9915 46.5511 19.0218 40.58 16.0937 40.5358C13.1655 40.4916 10.4199 43.1353 10.3545 47.4648Z" fill="#C2A08D"/>
<path d="M17.0361 47.5037C17.7313 44.3285 15.5985 39.8365 12.2226 44.8028" stroke="#B88C73"/>
<circle cx="39" cy="52" r="3" fill="#272727"/>
<path d="M43 53C43 55.2091 41.2091 57 39 57C36.7909 57 35 55.2091 35 53C36 50 36.2909 54 38.5 54C40.7091 54 41.5 50 43 53Z" fill="#272727" fill-opacity="0.16"/>
<path d="M61 53.1157C61 55.3248 59.2091 57.1157 57 57.1157C54.7909 57.1157 53 55.3248 53 53.1157C54 50.1157 54.2909 54.1157 56.5 54.1157C58.7091 54.1157 59.5 50.1157 61 53.1157Z" fill="#272727" fill-opacity="0.16"/>
<circle cx="57" cy="52" r="3" fill="#272727"/>
<path d="M79.9999 64C101 93 66.9999 111 49.9999 134C35.4999 121.5 5.99992 104.5 13.5 69C15.5825 59.1424 37.5 110 46.5 91.5C61 104 75.4999 86.5 79.9999 64Z" fill="#433434"/>
<path d="M61 81.9672C61 84.3316 55.8448 90.5295 48.4483 89.816C40.6034 91.2431 35 83.9748 35 81.6104C35 79.246 40.6965 80.1833 48 80.1833C55.3035 80.1833 60.5517 80.1833 61 81.9672Z" fill="#812727"/>
<path d="M61 81.665C55.7119 83.1472 54.8305 84.6295 48 85C41.8305 84.2589 42.2712 83.1472 35 81.2945C35 79.4526 40.7288 78.3301 48 79.4417C55.0508 78.3301 61 79.8232 61 81.665Z" fill="#AB3434"/>
<path d="M48.629 68.8614C48.629 71.6228 45.7418 80.8613 36.6291 80.8613C27.5164 80.8613 15.629 85.3613 17.129 83.3613C17.129 80.5999 27.5164 70.8613 36.6291 70.8613C45.7418 70.8613 48.629 66.0999 48.629 68.8614Z" fill="#524141"/>
<path d="M48 68.8682C48 71.6516 50.6473 80.9636 59.0025 80.9636C67.3577 80.9636 78.257 85.4994 76.8817 83.4835C76.8817 80.7001 67.3577 70.8841 59.0025 70.8841C50.6473 70.8841 48 66.0848 48 68.8682Z" fill="#524141"/>
<path d="M50.9321 61.1515C55.7485 67.4242 57.5983 73 49.0276 73C40.457 73 38.5523 70.2121 44.2661 61.1515C44.2661 54.9927 44.2661 52.0909 49.0276 50C52.8916 52.7879 50.9321 54.9927 50.9321 61.1515Z" fill="#B88C73"/>
<path d="M95.5 58.5C102 81 91.5259 89 49 89C6.47408 89 0.5 83.0767 0.5 58.5C16.5 41.5 6.47408 0 49 0C91.5259 0 84 36.5 95.5 58.5Z" fill="#2B2424"/>
<path d="M79.5 63C97.5 87 75.8381 117 48.5 117C21.1619 117 5.00003 78 16.5 60C16.5 29.0721 20.5 9.00001 48.5 22.5C81.5 4.5 79.5 32.0721 79.5 63Z" fill="#DAB7A3"/>
<path d="M88.3282 49.6654C88.0069 55.2969 85.0025 64.013 81.4196 63.8086C77.8367 63.6042 80.9148 58.3956 78.7576 53.4268C79.0789 47.7953 78.3729 39.9444 81.9558 40.1488C85.5387 40.3532 88.6494 44.0339 88.3282 49.6654Z" fill="#DAB7A3"/>
<path d="M87.0909 49.9619C86.8135 54.8255 84.2441 62.3544 81.1862 62.18C78.1283 62.0056 80.7585 57.5056 78.9202 53.2158C79.1976 48.3522 78.5996 41.5726 81.6575 41.747C84.7154 41.9215 87.3684 45.0984 87.0909 49.9619Z" fill="#C2A08D"/>
<path d="M80.1182 49.4943C79.6465 45.8779 82.2299 41.0001 85.3549 46.8317" stroke="#B88C73"/>
<path d="M9.19461 47.1215C9.11893 52.1345 11.3929 60.0564 14.8237 60.1082C18.2546 60.16 15.6724 55.3426 18.0669 51.0782C18.1425 46.0651 19.3485 39.1514 15.9176 39.0996C12.4868 39.0478 9.2703 42.1084 9.19461 47.1215Z" fill="#DAB7A3"/>
<path d="M10.3545 47.4648C10.2892 51.7942 12.2287 58.6355 15.1569 58.6797C18.085 58.7239 15.8819 54.5638 17.9262 50.8805C17.9915 46.5511 19.0218 40.58 16.0937 40.5358C13.1655 40.4916 10.4199 43.1353 10.3545 47.4648Z" fill="#C2A08D"/>
<path d="M17.0361 47.5037C17.7313 44.3285 15.5985 39.8365 12.2226 44.8028" stroke="#B88C73"/>
<path d="M35.5614 51.3684C35.3894 49.807 36.8965 51.2213 38.5433 51.0399C40.1902 50.8585 42.5198 47.7922 42.6917 49.3536C42.8637 50.9149 40.5016 53.6855 38.8547 53.8669C37.2079 54.0483 35.7334 52.9297 35.5614 51.3684Z" fill="#272727"/>
<path d="M43 53C43 55.2091 41.2091 57 39 57C36.7909 57 35 55.2091 35 53C36 50 36.2909 54 38.5 54C40.7091 54 41.5 50 43 53Z" fill="#272727" fill-opacity="0.16"/>
<path d="M61 53.1157C61 55.3248 59.2091 57.1157 57 57.1157C54.7909 57.1157 53 55.3248 53 53.1157C54 50.1157 54.2909 54.1157 56.5 54.1157C58.7091 54.1157 59.5 50.1157 61 53.1157Z" fill="#272727" fill-opacity="0.16"/>
<path d="M60 52C60 53.6569 58.6569 55 57 55C55.3431 55 53 52.1569 53 50.5C53 48.8431 55.3431 52 57 52C58.6569 52 60 50.3431 60 52Z" fill="#272727"/>
<path d="M79.9999 64C101 93 66.9999 111 49.9999 134C35.4999 121.5 5.99992 104.5 13.5 69C15.5825 59.1424 37.5 110 46.5 91.5C61 104 75.4999 86.5 79.9999 64Z" fill="#433434"/>
<path d="M35.0582 91.4645C35.0434 89.1001 40.4892 80.4302 48.0016 82.3832C55.8374 80.907 60.5516 90.3047 61.5641 92.2984C62.5703 93.2921 55.3363 87.3373 48.033 87.3831C40.7296 87.4289 35.5177 93.2455 35.0582 91.4645Z" fill="#812727"/>
<path d="M48.629 68.8614C48.629 71.6228 45.7418 80.8613 36.6291 80.8613C27.5164 80.8613 15.629 85.3613 17.129 83.3613C17.129 80.5999 27.5164 70.8613 36.6291 70.8613C45.7418 70.8613 48.629 66.0999 48.629 68.8614Z" fill="#524141"/>
<path d="M48 68.8682C48 71.6516 50.6473 80.9636 59.0025 80.9636C67.3577 80.9636 78.257 85.4994 76.8817 83.4835C76.8817 80.7001 67.3577 70.8841 59.0025 70.8841C50.6473 70.8841 48 66.0848 48 68.8682Z" fill="#524141"/>
<path d="M50.9321 61.1515C55.7485 67.4242 57.5983 73 49.0276 73C40.457 73 38.5523 70.2121 44.2661 61.1515C44.2661 54.9927 44.2661 52.0909 49.0276 50C52.8916 52.7879 50.9321 54.9927 50.9321 61.1515Z" fill="#B88C73"/>
<path d="M38.7426 39.5512C39.3496 40.7913 38.4679 42.469 34.0034 44.6541C29.5389 46.8392 28.0748 51.8764 27.4678 50.6363C26.8609 49.3962 28.4399 44.5938 32.9044 42.4087C37.3689 40.2235 38.1356 38.311 38.7426 39.5512Z" fill="#2A2424"/>
<path d="M56.2655 40.5649C55.675 41.836 56.4384 43.4435 60.4751 45.3188C64.5118 47.194 65.7184 52.0982 66.3089 50.8271C66.8994 49.556 65.5809 44.8925 61.5443 43.0172C57.5076 41.142 56.856 39.2938 56.2655 40.5649Z" fill="#2A2424"/>
<path d="M29.4576 62.3452C29.1453 63.8123 28.1762 65.1396 27.3659 64.9672C26.5556 64.7947 26.2359 63.0711 26.5233 61.7206C27.7096 60.9507 28.1897 59.5193 29 59.6918C29.8103 59.8642 29.2808 60.774 29.4576 62.3452Z" fill="#8CAAAE"/>
<path d="M22.5589 56.0698C22.2466 57.5369 21.2774 58.8642 20.4672 58.6918C19.6569 58.5193 19.3371 56.7957 19.6246 55.4452C20.8109 54.6753 21.291 53.2439 22.1012 53.4164C22.9115 53.5888 22.3821 54.4986 22.5589 56.0698Z" fill="#8CAAAE"/>
<path d="M65.5465 62.4142C65.9361 63.8627 65.6773 65.4856 64.8773 65.7008C64.0773 65.916 63.0081 64.5268 62.6495 63.1935C63.3554 61.968 63.1314 60.475 63.9314 60.2598C64.7314 60.0446 64.674 61.0955 65.5465 62.4142Z" fill="#8CAAAE"/>
<path d="M73.5465 41.4142C73.9361 42.8627 73.6773 44.4856 72.8773 44.7008C72.0773 44.916 71.0081 43.5268 70.6495 42.1935C71.3554 40.968 71.1314 39.475 71.9314 39.2598C72.7314 39.0446 72.674 40.0955 73.5465 41.4142Z" fill="#8CAAAE"/>
</svg>
