<svg width="78" height="221" viewBox="0 0 78 221" fill="none" xmlns="http://www.w3.org/2000/svg">
<path d="M65.6568 0L48.568 8L0 22.5L29.5 107L27 140L30.5799 172L44.071 167.5L65.6568 172L72 124.5L73.5 111V97L76 77.5L78 45.5V30L76 14.5L72 5L65.6568 0Z" fill="#A5A19E"/>
<path d="M23.5 159.5L35 163.5H61L68 159.5L65.5 198.5H31L23.5 159.5Z" fill="#BAB1B1"/>
<path d="M35 163.5H61L56 191H40L35 163.5Z" fill="#C4C4C4"/>
<path d="M77.1305 202.5C79.1305 223 64.923 219.5 48.6306 219.5C32.3382 219.5 16.6305 224.5 20.6305 203.5C20.6305 191.902 32.3382 184.5 48.6306 184.5C64.923 184.5 77.1305 190.902 77.1305 202.5Z" fill="#E2E2E2"/>
<path d="M76.1305 199C78.6305 211 73.6305 214.5 49.6305 211C23.1305 215.5 19.6305 210 21.1305 200C21.1305 191.992 34.995 184.5 49.6305 184.5C64.2661 184.5 76.1305 190.992 76.1305 199Z" fill="#736969"/>
<path d="M35 167.5C35 168.052 34.5523 168.5 34 168.5C33.4477 168.5 33 168.052 33 167.5C33 166.948 33.4477 166.5 34 166.5C34.5523 166.5 35 166.948 35 167.5Z" fill="#281B1B"/>
<path d="M35 167.5C35 168.052 34.5523 168.5 34 168.5C33.4477 168.5 33 168.052 33 167.5C33 166.948 33.4477 166.5 34 166.5C34.5523 166.5 35 166.948 35 167.5Z" fill="#281B1B"/>
<path d="M35 167.5C35 168.052 34.5523 168.5 34 168.5C33.4477 168.5 33 168.052 33 167.5C33 166.948 33.4477 166.5 34 166.5C34.5523 166.5 35 166.948 35 167.5Z" fill="#281B1B"/>
<path d="M35 167.5C35 168.052 34.5523 168.5 34 168.5C33.4477 168.5 33 168.052 33 167.5C33 166.948 33.4477 166.5 34 166.5C34.5523 166.5 35 166.948 35 167.5Z" fill="#281B1B"/>
<path d="M36 173.5C36 174.052 35.5523 174.5 35 174.5C34.4477 174.5 34 174.052 34 173.5C34 172.948 34.4477 172.5 35 172.5C35.5523 172.5 36 172.948 36 173.5Z" fill="#281B1B"/>
<path d="M36 173.5C36 174.052 35.5523 174.5 35 174.5C34.4477 174.5 34 174.052 34 173.5C34 172.948 34.4477 172.5 35 172.5C35.5523 172.5 36 172.948 36 173.5Z" fill="#281B1B"/>
<path d="M36 173.5C36 174.052 35.5523 174.5 35 174.5C34.4477 174.5 34 174.052 34 173.5C34 172.948 34.4477 172.5 35 172.5C35.5523 172.5 36 172.948 36 173.5Z" fill="#281B1B"/>
<path d="M36 173.5C36 174.052 35.5523 174.5 35 174.5C34.4477 174.5 34 174.052 34 173.5C34 172.948 34.4477 172.5 35 172.5C35.5523 172.5 36 172.948 36 173.5Z" fill="#281B1B"/>
<path d="M37 179.5C37 180.052 36.5523 180.5 36 180.5C35.4477 180.5 35 180.052 35 179.5C35 178.948 35.4477 178.5 36 178.5C36.5523 178.5 37 178.948 37 179.5Z" fill="#281B1B"/>
<path d="M37 179.5C37 180.052 36.5523 180.5 36 180.5C35.4477 180.5 35 180.052 35 179.5C35 178.948 35.4477 178.5 36 178.5C36.5523 178.5 37 178.948 37 179.5Z" fill="#281B1B"/>
<path d="M37 179.5C37 180.052 36.5523 180.5 36 180.5C35.4477 180.5 35 180.052 35 179.5C35 178.948 35.4477 178.5 36 178.5C36.5523 178.5 37 178.948 37 179.5Z" fill="#281B1B"/>
<path d="M37 179.5C37 180.052 36.5523 180.5 36 180.5C35.4477 180.5 35 180.052 35 179.5C35 178.948 35.4477 178.5 36 178.5C36.5523 178.5 37 178.948 37 179.5Z" fill="#281B1B"/>
<line x1="34.1213" y1="167.015" x2="62.1213" y2="174.015" stroke="black"/>
<line x1="36" y1="179" x2="52" y2="179" stroke="black"/>
<path d="M62 167.5C62 168.052 62.4477 168.5 63 168.5C63.5523 168.5 64 168.052 64 167.5C64 166.948 63.5523 166.5 63 166.5C62.4477 166.5 62 166.948 62 167.5Z" fill="#281B1B"/>
<path d="M62 167.5C62 168.052 62.4477 168.5 63 168.5C63.5523 168.5 64 168.052 64 167.5C64 166.948 63.5523 166.5 63 166.5C62.4477 166.5 62 166.948 62 167.5Z" fill="#281B1B"/>
<path d="M62 167.5C62 168.052 62.4477 168.5 63 168.5C63.5523 168.5 64 168.052 64 167.5C64 166.948 63.5523 166.5 63 166.5C62.4477 166.5 62 166.948 62 167.5Z" fill="#281B1B"/>
<path d="M62 167.5C62 168.052 62.4477 168.5 63 168.5C63.5523 168.5 64 168.052 64 167.5C64 166.948 63.5523 166.5 63 166.5C62.4477 166.5 62 166.948 62 167.5Z" fill="#281B1B"/>
<path d="M61 173.5C61 174.052 61.4477 174.5 62 174.5C62.5523 174.5 63 174.052 63 173.5C63 172.948 62.5523 172.5 62 172.5C61.4477 172.5 61 172.948 61 173.5Z" fill="#281B1B"/>
<path d="M61 173.5C61 174.052 61.4477 174.5 62 174.5C62.5523 174.5 63 174.052 63 173.5C63 172.948 62.5523 172.5 62 172.5C61.4477 172.5 61 172.948 61 173.5Z" fill="#281B1B"/>
<path d="M61 173.5C61 174.052 61.4477 174.5 62 174.5C62.5523 174.5 63 174.052 63 173.5C63 172.948 62.5523 172.5 62 172.5C61.4477 172.5 61 172.948 61 173.5Z" fill="#281B1B"/>
<path d="M61 173.5C61 174.052 61.4477 174.5 62 174.5C62.5523 174.5 63 174.052 63 173.5C63 172.948 62.5523 172.5 62 172.5C61.4477 172.5 61 172.948 61 173.5Z" fill="#281B1B"/>
<path d="M60 179.5C60 180.052 60.4477 180.5 61 180.5C61.5523 180.5 62 180.052 62 179.5C62 178.948 61.5523 178.5 61 178.5C60.4477 178.5 60 178.948 60 179.5Z" fill="#281B1B"/>
<path d="M60 179.5C60 180.052 60.4477 180.5 61 180.5C61.5523 180.5 62 180.052 62 179.5C62 178.948 61.5523 178.5 61 178.5C60.4477 178.5 60 178.948 60 179.5Z" fill="#281B1B"/>
<path d="M60 179.5C60 180.052 60.4477 180.5 61 180.5C61.5523 180.5 62 180.052 62 179.5C62 178.948 61.5523 178.5 61 178.5C60.4477 178.5 60 178.948 60 179.5Z" fill="#281B1B"/>
<path d="M60 179.5C60 180.052 60.4477 180.5 61 180.5C61.5523 180.5 62 180.052 62 179.5C62 178.948 61.5523 178.5 61 178.5C60.4477 178.5 60 178.948 60 179.5Z" fill="#281B1B"/>
<line y1="-0.5" x2="28.8617" y2="-0.5" transform="matrix(-0.970142 0.242536 0.242536 0.970142 63 167.5)" stroke="black"/>
<line y1="-0.5" x2="16" y2="-0.5" transform="matrix(-1 0 0 1 61 179.5)" stroke="black"/>
</svg>
