<svg width="85" height="217" viewBox="0 0 85 217" fill="none" xmlns="http://www.w3.org/2000/svg">
<path d="M9.5 0L31 4L85 18.5L60.5 80.5L53.5 110.5L52.5 150L51 169L36 163.5L12 168L6 124L0 84.5L2 47.5V25L4 11.5L9.5 0Z" fill="#A5A19E"/>
<path d="M9.5 155.5L21 159.5H47L54 155.5L51.5 194.5H17L9.5 155.5Z" fill="#BAB1B1"/>
<path d="M21 159.5H47L42 187H26L21 159.5Z" fill="#C4C4C4"/>
<path d="M63.1305 198.5C65.1305 219 50.923 215.5 34.6306 215.5C18.3382 215.5 2.63053 220.5 6.63053 199.5C6.63053 187.902 18.3382 180.5 34.6306 180.5C50.923 180.5 63.1305 186.902 63.1305 198.5Z" fill="#E2E2E2"/>
<path d="M62.1305 195C64.6305 207 59.6305 210.5 35.6305 207C9.13054 211.5 5.63053 206 7.13054 196C7.13054 187.992 20.995 180.5 35.6305 180.5C50.2661 180.5 62.1305 186.992 62.1305 195Z" fill="#736969"/>
<path d="M21 163.5C21 164.052 20.5523 164.5 20 164.5C19.4477 164.5 19 164.052 19 163.5C19 162.948 19.4477 162.5 20 162.5C20.5523 162.5 21 162.948 21 163.5Z" fill="#281B1B"/>
<path d="M21 163.5C21 164.052 20.5523 164.5 20 164.5C19.4477 164.5 19 164.052 19 163.5C19 162.948 19.4477 162.5 20 162.5C20.5523 162.5 21 162.948 21 163.5Z" fill="#281B1B"/>
<path d="M21 163.5C21 164.052 20.5523 164.5 20 164.5C19.4477 164.5 19 164.052 19 163.5C19 162.948 19.4477 162.5 20 162.5C20.5523 162.5 21 162.948 21 163.5Z" fill="#281B1B"/>
<path d="M21 163.5C21 164.052 20.5523 164.5 20 164.5C19.4477 164.5 19 164.052 19 163.5C19 162.948 19.4477 162.5 20 162.5C20.5523 162.5 21 162.948 21 163.5Z" fill="#281B1B"/>
<path d="M22 169.5C22 170.052 21.5523 170.5 21 170.5C20.4477 170.5 20 170.052 20 169.5C20 168.948 20.4477 168.5 21 168.5C21.5523 168.5 22 168.948 22 169.5Z" fill="#281B1B"/>
<path d="M22 169.5C22 170.052 21.5523 170.5 21 170.5C20.4477 170.5 20 170.052 20 169.5C20 168.948 20.4477 168.5 21 168.5C21.5523 168.5 22 168.948 22 169.5Z" fill="#281B1B"/>
<path d="M22 169.5C22 170.052 21.5523 170.5 21 170.5C20.4477 170.5 20 170.052 20 169.5C20 168.948 20.4477 168.5 21 168.5C21.5523 168.5 22 168.948 22 169.5Z" fill="#281B1B"/>
<path d="M22 169.5C22 170.052 21.5523 170.5 21 170.5C20.4477 170.5 20 170.052 20 169.5C20 168.948 20.4477 168.5 21 168.5C21.5523 168.5 22 168.948 22 169.5Z" fill="#281B1B"/>
<path d="M23 175.5C23 176.052 22.5523 176.5 22 176.5C21.4477 176.5 21 176.052 21 175.5C21 174.948 21.4477 174.5 22 174.5C22.5523 174.5 23 174.948 23 175.5Z" fill="#281B1B"/>
<path d="M23 175.5C23 176.052 22.5523 176.5 22 176.5C21.4477 176.5 21 176.052 21 175.5C21 174.948 21.4477 174.5 22 174.5C22.5523 174.5 23 174.948 23 175.5Z" fill="#281B1B"/>
<path d="M23 175.5C23 176.052 22.5523 176.5 22 176.5C21.4477 176.5 21 176.052 21 175.5C21 174.948 21.4477 174.5 22 174.5C22.5523 174.5 23 174.948 23 175.5Z" fill="#281B1B"/>
<path d="M23 175.5C23 176.052 22.5523 176.5 22 176.5C21.4477 176.5 21 176.052 21 175.5C21 174.948 21.4477 174.5 22 174.5C22.5523 174.5 23 174.948 23 175.5Z" fill="#281B1B"/>
<line x1="20.1213" y1="163.015" x2="48.1213" y2="170.015" stroke="black"/>
<line x1="22" y1="175" x2="38" y2="175" stroke="black"/>
<path d="M48 163.5C48 164.052 48.4477 164.5 49 164.5C49.5523 164.5 50 164.052 50 163.5C50 162.948 49.5523 162.5 49 162.5C48.4477 162.5 48 162.948 48 163.5Z" fill="#281B1B"/>
<path d="M48 163.5C48 164.052 48.4477 164.5 49 164.5C49.5523 164.5 50 164.052 50 163.5C50 162.948 49.5523 162.5 49 162.5C48.4477 162.5 48 162.948 48 163.5Z" fill="#281B1B"/>
<path d="M48 163.5C48 164.052 48.4477 164.5 49 164.5C49.5523 164.5 50 164.052 50 163.5C50 162.948 49.5523 162.5 49 162.5C48.4477 162.5 48 162.948 48 163.5Z" fill="#281B1B"/>
<path d="M48 163.5C48 164.052 48.4477 164.5 49 164.5C49.5523 164.5 50 164.052 50 163.5C50 162.948 49.5523 162.5 49 162.5C48.4477 162.5 48 162.948 48 163.5Z" fill="#281B1B"/>
<path d="M47 169.5C47 170.052 47.4477 170.5 48 170.5C48.5523 170.5 49 170.052 49 169.5C49 168.948 48.5523 168.5 48 168.5C47.4477 168.5 47 168.948 47 169.5Z" fill="#281B1B"/>
<path d="M47 169.5C47 170.052 47.4477 170.5 48 170.5C48.5523 170.5 49 170.052 49 169.5C49 168.948 48.5523 168.5 48 168.5C47.4477 168.5 47 168.948 47 169.5Z" fill="#281B1B"/>
<path d="M47 169.5C47 170.052 47.4477 170.5 48 170.5C48.5523 170.5 49 170.052 49 169.5C49 168.948 48.5523 168.5 48 168.5C47.4477 168.5 47 168.948 47 169.5Z" fill="#281B1B"/>
<path d="M47 169.5C47 170.052 47.4477 170.5 48 170.5C48.5523 170.5 49 170.052 49 169.5C49 168.948 48.5523 168.5 48 168.5C47.4477 168.5 47 168.948 47 169.5Z" fill="#281B1B"/>
<path d="M46 175.5C46 176.052 46.4477 176.5 47 176.5C47.5523 176.5 48 176.052 48 175.5C48 174.948 47.5523 174.5 47 174.5C46.4477 174.5 46 174.948 46 175.5Z" fill="#281B1B"/>
<path d="M46 175.5C46 176.052 46.4477 176.5 47 176.5C47.5523 176.5 48 176.052 48 175.5C48 174.948 47.5523 174.5 47 174.5C46.4477 174.5 46 174.948 46 175.5Z" fill="#281B1B"/>
<path d="M46 175.5C46 176.052 46.4477 176.5 47 176.5C47.5523 176.5 48 176.052 48 175.5C48 174.948 47.5523 174.5 47 174.5C46.4477 174.5 46 174.948 46 175.5Z" fill="#281B1B"/>
<path d="M46 175.5C46 176.052 46.4477 176.5 47 176.5C47.5523 176.5 48 176.052 48 175.5C48 174.948 47.5523 174.5 47 174.5C46.4477 174.5 46 174.948 46 175.5Z" fill="#281B1B"/>
<line y1="-0.5" x2="28.8617" y2="-0.5" transform="matrix(-0.970142 0.242536 0.242536 0.970142 49 163.5)" stroke="black"/>
<line y1="-0.5" x2="16" y2="-0.5" transform="matrix(-1 0 0 1 47 175.5)" stroke="black"/>
<path d="M5 39.4339C6.71345 38.7441 12 39.5 16.5 37.5C23 36 23.2567 30.047 24.5 29" stroke="#4F4A47" stroke-linecap="round" stroke-linejoin="round"/>
</svg>
